<?xml version="1.0" encoding="utf-8"?>
<!-- Generator: Adobe Illustrator 23.0.6, SVG Export Plug-In . SVG Version: 6.00 Build 0)  -->
<svg version="1.1" id="图层_1" xmlns="http://www.w3.org/2000/svg" xmlns:xlink="http://www.w3.org/1999/xlink" x="0px" y="0px"
	 viewBox="0 0 2048 2048" style="enable-background:new 0 0 2048 2048;" xml:space="preserve">
<style type="text/css">
	.st0{fill:none;}
	.st1{fill:#4C4C4C;}
	.st2{fill:#FF0096;}
	.st3{opacity:0.5;fill:#999999;enable-background:new    ;}
</style>
<title>VoxHuang</title>
<g>
	<rect class="st0" width="2048" height="2048"/>
</g>
<g>
	<path class="st1" d="M248.7,509.7h216.4L587,949c2.6,9.5,8.6,14.3,18.1,14.3s16-4.8,19.4-14.3c8.7-31.1,19.3-69.1,31.8-114
		s24.8-89.4,36.9-133.5c12.1-44.1,23.1-83.8,33-119.2s16.6-59.6,20.1-72.6h7.8l-252.7,911L248.7,509.7z"/>
	<path class="st2" d="M1027.2,509.7c27.6-0.2,55,5.3,80.3,16.2c49.8,21.3,89.5,61,110.8,110.8c10.9,25.4,16.4,52.7,16.2,80.3v495
		c0.1,27.8-5.4,55.4-16.2,81c-21,50.2-60.8,90.1-110.8,111.4c-25.4,10.9-52.7,16.4-80.3,16.2c-27.8,0.1-55.4-5.4-81-16.2
		c-50.4-21-90.4-61.1-111.5-111.5c-10.8-25.6-16.3-53.2-16.2-81V717c-0.2-27.6,5.3-55,16.2-80.3c10.6-24.7,25.7-47.1,44.7-66.1
		c19.1-19.1,41.8-34.3,66.7-44.7C971.8,515,999.4,509.5,1027.2,509.7z M1227.1,717c0.2-25-4.5-49.9-13.6-73.2
		c-8.8-22.4-21.5-43-37.6-60.9c-16.2-17.8-35.5-32.6-57-43.4c-22-11.2-46-18.3-70.6-20.8h-1.3c-13,0-19.4,6.5-19.4,19.4v854.1
		c-0.1,5,1.8,9.9,5.2,13.6c3.5,3.9,8.2,5.8,14.3,5.8h1.3c24.6-2.5,48.6-9.5,70.6-20.7c21.6-10.9,41-25.9,57-44.1
		c16-18.2,28.7-39,37.6-61.6c9.1-23.3,13.8-48.2,13.6-73.2V717z"/>
	<path class="st1" d="M1518.8,518.7l248.8,902h-467.8c7.8-26.9,15.1-53.4,22-79.3c6-22.5,12.3-45.6,18.8-69.3
		c6.5-23.8,12.4-44.3,17.5-61.6l7.8,2.6l-55.7,199.6H1524c5.2,0,10.2-2.2,14.9-6.5c4.7-4.3,6.3-10.4,4.5-18.2l-243.7-877.4h469.1
		c-7.8,27.7-15.1,54.4-22,80.4c-6.9,22.5-13.6,45.6-20.1,69.3c-6.5,23.8-11.9,43.8-16.2,60.3l-7.8-2.6c3.5-13.8,8-30.4,13.6-49.9
		c5.6-19.4,11.2-38.9,16.8-58.3c5.6-19.4,10.6-37.4,14.9-53.8c4.3-16.4,7.8-29,10.4-37.6L1518.8,518.7z"/>
	<path class="st3" d="M226.8,1497.1h6.2v50.4c2.7-5.6,6.7-10.4,11.8-13.9c4.8-3.3,10.5-5.1,16.3-5c9.2,0,16.5,2.7,21.9,8.2
		c5.4,5.5,8.2,13.4,8.2,23.5v53.3h-6.1v-52.8c0-8.4-2.3-15-6.9-19.8c-4.5-4.5-10.6-6.7-18.2-6.7c-7.3,0-13.6,3-18.9,9
		c-5.4,6.1-8.3,14-8.2,22.1v48.3h-6.2L226.8,1497.1z"/>
	<path class="st3" d="M329.5,1504.1v26.7h22.9v5.6h-22.9v59.7c0,4.5,0.7,7.5,2.2,9.1c1.3,1.8,4.1,2.7,8.3,2.7h10.4v5.6h-10.9
		c-6.2,0-10.5-1.5-13-4.6c-2.1-2.8-3.2-7-3.2-12.8v-59.7h-18.7v-5.6h18.7v-24L329.5,1504.1z"/>
	<path class="st3" d="M384.9,1504.1v26.7h22.9v5.6h-22.9v59.7c0,4.5,0.7,7.5,2.2,9.1c1.3,1.8,4.1,2.7,8.3,2.7h10.4v5.6H395
		c-6.2,0-10.5-1.5-13-4.6c-2.1-2.8-3.2-7-3.2-12.8v-59.7h-18.7v-5.6h18.7v-24L384.9,1504.1z"/>
	<path class="st3" d="M486.8,1542c6.1,8,9.1,18.1,9.1,30.2c0,12.1-3,22.1-9,30.2c-6.6,8.9-15.8,13.3-27.5,13.3
		c-14.6,0-24.8-7.3-30.6-21.8v51.2h-6.2v-114.4h5.9v19.4c6.3-14.4,16.5-21.6,30.7-21.6C470.9,1528.6,480.1,1533.1,486.8,1542z
		 M436.3,1545.5c-5,6.6-7.5,15.4-7.5,26.2v1.9c0,10.6,2.6,19.2,7.7,25.9c5.4,7,12.9,10.6,22.4,10.6c10,0,17.7-3.7,23.2-11
		c5-6.9,7.5-15.9,7.5-26.9c0-10.9-2.5-19.7-7.5-26.6c-5.4-7.7-13.1-11.5-23-11.5C449.2,1534.2,441.6,1538,436.3,1545.5L436.3,1545.5
		z"/>
	<path class="st3" d="M572.1,1553.7H566c-1.1-6.2-3.5-10.9-7.4-14.1c-4.4-3.6-10.6-5.4-18.6-5.4c-6.8,0-12.3,1.5-16.3,4.5
		c-4.5,2.9-6.7,6.5-6.7,11c0,4.8,2.6,8.6,7.8,11.5c3.4,1.8,9.3,3.8,17.8,6.1c10.2,2.6,17.4,5.1,21.6,7.5c6.7,3.8,10.1,9.3,10.1,16.3
		c0,16.4-10.7,24.6-32.2,24.6c-20.6,0-31.8-9.3-33.8-27.8h6.2c1,8.1,3.8,13.9,8.5,17.3c4.3,3.3,10.6,5,19,5
		c17.3,0,25.9-6.3,25.9-18.9c0-5.4-2.9-9.6-8.6-12.5c-2.9-1.6-9.3-3.7-19.2-6.2c-9.7-2.6-16.4-5-20.2-7.4c-6.1-3.7-9.1-8.9-9.1-15.4
		s2.9-11.7,8.6-15.5c5.7-3.8,12.5-5.8,20.5-5.8C558.8,1528.6,569.5,1537,572.1,1553.7z"/>
	<path class="st3" d="M604.4,1544.1c2.4,2.6,2.3,6.7-0.4,9.2c-1.2,1.1-2.7,1.7-4.3,1.7c-1.7,0-3.3-0.7-4.5-1.9
		c-1.2-1.2-1.9-2.8-1.9-4.5c-0.1-1.7,0.6-3.4,1.9-4.5c1.1-1.3,2.8-2,4.5-1.9C601.5,1542.2,603.2,1542.9,604.4,1544.1z M604.4,1602.7
		c2.4,2.6,2.3,6.7-0.4,9.2c-1.2,1.1-2.7,1.7-4.3,1.7c-1.7,0-3.3-0.7-4.5-1.9c-1.2-1.2-1.9-2.8-1.9-4.5c-0.1-1.7,0.6-3.4,1.9-4.5
		c1.1-1.3,2.8-2,4.5-1.9C601.5,1600.7,603.2,1601.4,604.4,1602.7z"/>
	<path class="st3" d="M686,1482.3h5.9l-58.1,147.2h-5.9L686,1482.3z"/>
	<path class="st3" d="M766,1482.3h5.9l-58.1,147.2h-5.9L766,1482.3z"/>
	<path class="st3" d="M780.7,1530.8h6.9l28.5,74.7l28.5-74.7h6.9l-32,82.7h-6.7L780.7,1530.8z"/>
	<path class="st3" d="M926.7,1542.2c6.5,8.1,9.8,18.1,9.8,30.1c0,11.6-3.3,21.7-9.8,30.1c-7.2,9-16.8,13.4-28.8,13.4
		c-12.2,0-21.8-4.5-28.8-13.4c-6.5-8.2-9.8-18.2-9.8-30.1c0-12.2,3.3-22.2,9.8-30.1c7-9.1,16.6-13.6,28.8-13.6
		C909.9,1528.6,919.5,1533.1,926.7,1542.2z M873.7,1545.9c-5.4,7-8.2,15.8-8.2,26.4s2.7,19.3,8.2,26.2c6,7.8,14.1,11.7,24.2,11.7
		c9.5,0.2,18.5-4.1,24.2-11.7c5.4-7,8.2-15.8,8.2-26.2c0-10.6-2.7-19.4-8.2-26.4c-6.1-7.8-14.1-11.7-24.2-11.7
		C887.6,1534.2,879.6,1538.1,873.7,1545.9L873.7,1545.9z"/>
	<path class="st3" d="M947.6,1530.8h7.7l26.2,34.4l26.2-34.4h7.5l-30.1,39.2l33.6,43.5h-7.7l-29.6-38.9l-29.8,38.9h-7.5l33.6-43.5
		L947.6,1530.8z"/>
	<path class="st3" d="M1029.8,1497.1h6.2v50.4c2.7-5.6,6.7-10.4,11.8-13.9c4.8-3.3,10.5-5.1,16.3-5c9.2,0,16.5,2.7,21.9,8.2
		c5.4,5.5,8.2,13.4,8.2,23.5v53.3h-6.1v-52.8c0-8.4-2.3-15-6.9-19.8c-4.5-4.5-10.6-6.7-18.2-6.7c-7.3,0-13.6,3-18.9,9
		c-5.4,6.1-8.3,14-8.2,22.1v48.3h-6.2V1497.1z"/>
	<path class="st3" d="M1115,1530.8h6.2v50.7c0,9.4,2,16.4,5.9,21.1c4.2,5,10.6,7.5,19.4,7.5c7.2,0.1,14.1-2.8,18.9-8.2
		c5.1-5.4,7.8-12.5,8.2-21.1v-50.1h6.1v82.7h-6.1v-15.4c-6.3,11.7-15.7,17.6-28.2,17.6c-20.3,0-30.4-11.4-30.4-34.1V1530.8z"/>
	<path class="st3" d="M1259.4,1538.2c4.7,5.3,7,12.6,7,21.9v53.4h-5.9v-17.8c-3.8,5.3-8.5,9.8-13.9,13.3c-6.8,4.4-14.8,6.7-22.9,6.7
		c-7.9,0-14.4-2-19.4-6.1c-5-4.3-7.5-9.9-7.5-17c0-10.6,4.4-18.2,13.3-22.9c6.8-3.7,16.2-5.6,28-5.6l22.2-0.2v-3.4
		c0-17.7-8.8-26.6-26.4-26.6c-7.9,0-14.2,1.8-19,5.3c-5.3,3.7-8.5,9.1-9.4,16h-6.1c1.3-9,5.1-15.7,11.4-20.3
		c5.8-4.4,13.5-6.6,23.4-6.6C1245.5,1528.6,1253.9,1531.8,1259.4,1538.2z M1260.4,1569.5l-22.1,0.2c-23.5,0.1-35.2,7.8-35.2,23.2
		c-0.1,4.9,2,9.6,5.9,12.6c3.9,3.1,9.2,4.6,15.8,4.6c9,0,17.2-3.1,24.8-9.4c7.1-6.3,10.7-12.7,10.7-19.2L1260.4,1569.5z"/>
	<path class="st3" d="M1351.6,1562.8v50.7h-6.2V1563c0-19.2-8.4-28.8-25.3-28.8c-7.1-0.1-14,2.8-18.7,8.2
		c-5.1,5.2-7.8,12.3-8.2,21.1v50.1h-6.2v-82.7h6.2v15c2.5-5.2,6.4-9.5,11.2-12.6c5-3.1,10.8-4.8,16.6-4.6
		C1341.4,1528.6,1351.6,1540,1351.6,1562.8z"/>
	<path class="st3" d="M1437.7,1550v-19.2h6.2v76.3c0,26.9-12.1,40.3-36.3,40.3c-10.7,0-18.9-2.4-24.6-7.2c-5.6-4.6-9-11.1-10.2-19.7
		h6.1c1.3,6.7,4.1,11.8,8.3,15.4c4.9,3.9,11.7,5.9,20.5,5.9c20.1,0,30.1-11.4,30.1-34.2v-17.3c-6.1,14.2-16.6,21.3-31.7,21.3
		c-11.6,0-20.9-4.2-27.8-12.6c-6.2-7.8-9.3-17.4-9.3-28.8c0-11.6,3.1-21.2,9.3-28.8c6.8-8.5,16.1-12.8,27.8-12.8
		C1421,1528.6,1431.6,1535.7,1437.7,1550z M1383.1,1545c-5.3,6.4-8,14.8-8,25.1c0,9.8,2.6,18.1,7.7,24.8c5.7,7.3,13.5,11,23.7,11
		c9.7,0,17.5-3.6,23.4-10.7c5.2-6.8,7.8-15.2,7.8-25.1s-2.6-18.3-7.8-25.1c-5.7-7.2-13.4-10.9-23.4-10.9
		C1396.5,1534.2,1388.7,1537.8,1383.1,1545L1383.1,1545z"/>
	<path class="st3" d="M1478.8,1602.7c1.2,1.2,1.8,2.8,1.8,4.5c-0.1,3.5-2.9,6.3-6.4,6.4c-1.7,0-3.3-0.7-4.5-1.9
		c-1.2-1.2-1.9-2.8-1.9-4.5c-0.1-1.7,0.6-3.4,1.9-4.5c1.1-1.3,2.8-2,4.5-1.9C1475.9,1600.7,1477.6,1601.4,1478.8,1602.7z"/>
	<path class="st3" d="M1562,1535.8c6.1,4.8,9.7,12.1,11,21.8h-6c-1.1-7.7-4.1-13.5-9-17.4c-4.9-3.9-11.4-5.9-19.4-5.9
		c-9-0.2-17.5,3.9-22.9,11.2c-5.4,7-8.2,16.3-8.2,27.7c0,11.2,2.6,20.1,7.8,26.7c5.3,6.9,13,10.4,23,10.4c16.4,0,26.1-8.6,29-25.8
		h6.1c-1.6,10.1-5.4,17.9-11.5,23.4c-6.1,5.4-13.9,8.1-23.5,8c-12,0-21.4-4.2-28-12.5c-6.1-7.7-9.1-17.8-9.1-30.2
		c0-12.7,3.2-23.1,9.6-31.2c6.6-8.8,15.8-13.3,27.7-13.3C1548.1,1528.6,1555.9,1531,1562,1535.8z"/>
	<path class="st3" d="M1653.4,1542.2c6.5,8.1,9.8,18.1,9.8,30.1c0,11.6-3.3,21.7-9.8,30.1c-7.1,9-16.7,13.4-28.8,13.4
		c-12.1,0-21.7-4.5-28.8-13.4c-6.5-8.2-9.8-18.3-9.8-30.1c0-12.2,3.3-22.2,9.8-30.1c7-9.1,16.6-13.6,28.8-13.6
		C1636.6,1528.6,1646.2,1533.1,1653.4,1542.2z M1600.4,1545.9c-5.4,7-8.2,15.8-8.2,26.4c0,10.6,2.7,19.3,8.2,26.2
		c6,7.8,14.1,11.7,24.2,11.7c9.5,0.2,18.5-4.1,24.2-11.7c5.4-7,8.2-15.8,8.2-26.2c0-10.6-2.7-19.4-8.2-26.4
		c-6.1-7.8-14.1-11.7-24.2-11.7C1614.3,1534.2,1606.3,1538.1,1600.4,1545.9L1600.4,1545.9z"/>
	<path class="st3" d="M1737,1547c2.3-5.4,6-10,10.7-13.4c4.5-3.4,9.9-5.1,15.5-5c8.8,0,15.6,2.7,20.5,8c4.9,5.4,7.4,13.1,7.4,22.9
		v54.1h-6.1V1560c0-8.4-1.8-14.7-5.3-18.9c-3.8-4.6-9.7-6.9-17.6-6.9c-6.4-0.2-12.4,2.6-16.5,7.5c-4.5,4.8-6.7,10.9-6.7,18.4v53.4
		h-6.2V1560c0-17.2-7.5-25.8-22.4-25.8c-6.7,0-12.3,2.7-16.8,8.2c-4.6,5.2-6.9,11.8-6.9,19.7v51.5h-6.2v-82.7h6.2v14.1
		c5.4-10.9,13.6-16.3,24.5-16.3C1724.5,1528.6,1733.2,1534.7,1737,1547z"/>
</g>
</svg>
