<?xml version="1.0" standalone="no"?>
<!DOCTYPE svg PUBLIC "-//W3C//DTD SVG 20010904//EN"
 "http://www.w3.org/TR/2001/REC-SVG-20010904/DTD/svg10.dtd">
<svg version="1.0" xmlns="http://www.w3.org/2000/svg"
 width="700.000000pt" height="700.000000pt" viewBox="0 0 700.000000 700.000000"
 preserveAspectRatio="xMidYMid meet">
<metadata>
Created by potrace 1.11, written by Peter Selinger 2001-2013
</metadata>
<g transform="translate(0.000000,700.000000) scale(0.100000,-0.100000)"
fill="#000000" stroke="none">
<path d="M854 5241 c8 -28 67 -239 331 -1191 141 -509 284 -1022 317 -1140 70
-255 88 -320 93 -340 11 -46 115 -413 117 -416 3 -2 73 247 260 921 22 77 68
246 104 375 36 129 74 269 85 310 11 41 38 138 60 215 23 77 42 147 44 155 4
16 70 254 112 405 14 50 36 128 48 175 52 189 146 526 150 538 2 6 -2 12 -10
12 -8 0 -20 -22 -29 -57 -9 -32 -21 -74 -26 -93 -26 -92 -234 -845 -250 -905
-37 -138 -122 -435 -131 -458 -6 -15 -22 -30 -35 -33 -38 -10 -71 3 -83 33 -9
24 -171 603 -236 843 -19 73 -124 452 -171 617 l-14 51 -370 0 c-340 0 -370
-1 -366 -17z"/>
<path d="M3340 5235 c-214 -54 -375 -185 -471 -381 -73 -151 -71 -119 -71
-1144 0 -980 0 -983 51 -1116 156 -402 646 -571 1021 -351 30 18 93 70 140
117 94 94 142 173 182 300 l23 75 0 970 c0 922 -1 973 -19 1030 -17 55 -36 98
-79 180 -20 38 -90 120 -142 166 -80 72 -191 130 -305 160 -80 21 -235 19
-330 -6z m330 -24 c79 -18 132 -40 205 -86 176 -110 292 -296 313 -501 9 -87
7 -1837 -2 -1884 -51 -263 -230 -463 -484 -540 -98 -30 -149 -30 -173 -2 -17
21 -18 93 -17 1508 0 1457 1 1486 20 1503 21 20 60 21 138 2z"/>
<path d="M4459 5252 c-16 -3 -6 -41 222 -855 27 -98 56 -202 64 -230 37 -137
87 -318 104 -377 10 -36 42 -150 71 -255 29 -104 65 -235 81 -290 24 -85 70
-254 124 -450 45 -163 108 -390 125 -451 31 -108 32 -119 11 -145 l-19 -24
-382 -2 c-352 -1 -380 0 -376 15 3 9 10 35 15 57 5 22 33 121 61 220 48 171
100 360 103 379 1 5 -3 10 -9 13 -12 4 -25 -35 -89 -267 -20 -74 -54 -198 -76
-275 -21 -78 -39 -147 -39 -155 0 -13 103 -15 795 -15 437 0 795 2 795 5 0 3
-15 59 -34 125 -18 66 -50 181 -71 255 -47 173 -89 325 -158 575 -31 110 -85
308 -122 440 -36 132 -72 263 -80 290 -15 50 -85 307 -110 400 -8 28 -37 133
-65 235 -28 102 -60 217 -70 255 -63 234 -121 444 -129 467 -5 16 -6 30 -2 32
4 3 188 5 408 5 371 0 401 -2 398 -17 -7 -28 -71 -262 -95 -342 -22 -75 -90
-323 -90 -327 0 -2 6 -3 14 -3 8 0 17 12 20 28 4 15 13 50 21 77 61 212 114
401 120 430 2 6 12 41 24 79 11 37 21 76 21 85 0 15 -62 16 -783 16 -430 0
-790 -1 -798 -3z"/>
<path d="M2615 1920 c-3 -5 -1 -10 4 -10 6 0 11 5 11 10 0 6 -2 10 -4 10 -3 0
-8 -4 -11 -10z"/>
<path d="M2332 1905 c4 -4 3 -14 -3 -21 -7 -9 -6 -14 3 -20 7 -4 10 -4 6 1 -4
4 -3 14 3 21 7 9 6 14 -3 20 -7 4 -10 4 -6 -1z"/>
<path d="M2606 1885 c-9 -26 -7 -32 5 -12 6 10 9 21 6 23 -2 3 -7 -2 -11 -11z"/>
<path d="M779 1869 c5 -6 7 -17 5 -24 -3 -7 -1 -15 4 -19 13 -8 8 33 -6 44 -8
7 -9 7 -3 -1z"/>
<path d="M3525 1684 c0 -107 2 -194 5 -194 4 0 6 42 5 93 -1 50 2 97 7 103 5
6 5 22 0 35 -4 13 -7 52 -7 87 1 35 -1 65 -4 67 -3 2 -6 -84 -6 -191z"/>
<path d="M1110 1839 c0 -5 5 -7 10 -4 6 3 10 8 10 11 0 2 -4 4 -10 4 -5 0 -10
-5 -10 -11z"/>
<path d="M1298 1815 c-2 -19 0 -35 4 -35 4 0 8 16 8 35 0 19 -2 35 -4 35 -2 0
-6 -16 -8 -35z"/>
<path d="M2306 1834 c-5 -14 -4 -15 9 -4 17 14 19 20 6 20 -5 0 -12 -7 -15
-16z"/>
<path d="M2580 1832 c0 -10 -5 -23 -11 -29 -8 -8 -7 -13 3 -18 7 -5 10 -5 6 0
-4 4 -4 13 1 19 14 19 21 46 11 46 -6 0 -10 -8 -10 -18z"/>
<path d="M773 1805 c0 -8 6 -16 14 -19 11 -4 11 -1 3 14 -13 24 -17 25 -17 5z"/>
<path d="M1107 1803 c3 -7 6 -13 8 -13 2 0 5 6 8 13 3 8 -1 14 -8 14 -7 0 -11
-6 -8 -14z"/>
<path d="M2295 1800 c-3 -5 -1 -10 4 -10 6 0 11 5 11 10 0 6 -2 10 -4 10 -3 0
-8 -4 -11 -10z"/>
<path d="M1094 1769 c-3 -5 -10 -7 -15 -4 -5 4 -9 2 -9 -3 0 -5 16 -9 36 -10
22 -1 34 3 32 10 -5 14 -36 19 -44 7z"/>
<path d="M2276 1755 c-9 -14 -14 -25 -11 -25 3 0 -2 -16 -10 -37 -8 -20 -14
-38 -11 -40 3 -4 31 60 36 82 1 6 6 18 11 28 14 26 4 21 -15 -8z"/>
<path d="M4210 1769 c0 -5 5 -7 10 -4 6 3 10 8 10 11 0 2 -4 4 -10 4 -5 0 -10
-5 -10 -11z"/>
<path d="M4788 1769 c-10 -5 -18 -7 -18 -4 0 4 -13 -3 -30 -15 -16 -12 -30
-29 -29 -38 0 -14 2 -14 6 -2 10 26 50 49 90 52 7 1 10 5 7 10 -6 10 -5 10
-26 -3z"/>
<path d="M5535 1770 c-3 -5 -14 -10 -24 -10 -9 0 -25 -6 -36 -13 -14 -11 -15
-16 -5 -22 9 -5 11 -4 6 4 -5 7 3 13 24 17 17 4 33 11 36 15 3 5 10 6 16 3 7
-4 8 -2 4 4 -9 15 -13 15 -21 2z"/>
<path d="M6025 1770 c-4 -6 -10 -8 -15 -5 -5 3 -11 1 -15 -5 -4 -6 -10 -8 -15
-5 -5 3 -11 1 -14 -4 -5 -7 22 -8 32 -1 1 2 6 3 12 4 11 1 37 26 28 26 -4 0
-10 -5 -13 -10z"/>
<path d="M780 1760 c0 -5 5 -10 11 -10 5 0 7 5 4 10 -3 6 -8 10 -11 10 -2 0
-4 -4 -4 -10z"/>
<path d="M850 1760 c0 -5 5 -10 10 -10 6 0 10 5 10 10 0 6 -4 10 -10 10 -5 0
-10 -4 -10 -10z"/>
<path d="M910 1759 c0 -5 4 -8 9 -5 18 11 53 -34 54 -71 0 -7 6 -14 14 -17 10
-4 11 -1 4 13 -6 10 -7 21 -4 25 3 3 1 6 -6 6 -7 0 -10 4 -6 9 3 5 -7 19 -21
30 -29 23 -44 27 -44 10z"/>
<path d="M1156 1761 c-3 -4 6 -7 19 -7 14 0 22 2 19 5 -8 8 -34 10 -38 2z"/>
<path d="M1237 1758 c-7 -4 4 -6 23 -5 27 2 35 -2 38 -18 7 -35 17 -35 18 1 0
21 -3 30 -8 22 -6 -10 -8 -10 -8 -1 0 13 -42 14 -63 1z"/>
<path d="M1330 1760 c0 -5 9 -8 20 -7 21 1 18 10 -5 13 -8 1 -15 -2 -15 -6z"/>
<path d="M1447 1758 c-2 -7 3 -22 12 -32 15 -18 15 -19 -1 -13 -25 9 -22 0 5
-14 12 -6 19 -8 15 -4 -4 4 0 13 9 20 13 9 13 14 3 20 -9 5 -11 4 -6 -3 9 -15
-7 -15 -21 -1 -6 6 -9 18 -6 25 3 8 3 14 0 14 -3 0 -7 -6 -10 -12z"/>
<path d="M1525 1760 c-4 -6 -11 -7 -17 -4 -7 4 -8 2 -4 -5 6 -8 12 -9 20 -2 7
6 16 8 19 4 4 -3 7 -1 7 5 0 15 -17 16 -25 2z"/>
<path d="M1580 1762 c0 -5 7 -9 15 -9 8 0 15 4 15 9 0 4 -7 8 -15 8 -8 0 -15
-4 -15 -8z"/>
<path d="M1806 1762 c-3 -5 8 -6 25 -4 16 2 29 6 29 8 0 8 -49 4 -54 -4z"/>
<path d="M1870 1759 c0 -5 4 -8 9 -5 4 3 16 -3 26 -14 20 -22 35 -26 35 -9 0
5 -4 7 -10 4 -5 -3 -15 3 -22 15 -13 21 -38 27 -38 9z"/>
<path d="M2550 1760 c0 -5 5 -10 10 -10 6 0 10 5 10 10 0 6 -4 10 -10 10 -5 0
-10 -4 -10 -10z"/>
<path d="M2887 1758 c-7 -20 -7 -28 0 -30 3 -2 8 7 9 20 4 24 -1 30 -9 10z"/>
<path d="M3025 1760 c-4 -6 -10 -8 -14 -5 -5 2 -16 -4 -26 -15 -10 -11 -14
-20 -9 -21 5 0 0 -4 -11 -9 -17 -7 -18 -9 -2 -9 10 -1 22 10 27 25 6 14 13 23
18 20 4 -2 16 2 27 10 10 8 14 14 8 14 -7 0 -15 -5 -18 -10z"/>
<path d="M3060 1762 c0 -5 7 -9 15 -9 8 0 15 4 15 9 0 4 -7 8 -15 8 -8 0 -15
-4 -15 -8z"/>
<path d="M3115 1752 c11 -11 24 -19 30 -18 5 0 14 -14 19 -31 6 -18 14 -33 18
-33 25 0 -18 68 -55 86 l-32 16 20 -20z"/>
<path d="M3250 1763 c0 -6 7 -13 15 -17 8 -3 14 -10 13 -14 -2 -5 9 -23 24
-40 43 -49 49 -66 30 -84 -28 -25 -62 -68 -54 -68 4 0 23 18 42 41 l33 41 29
-31 c15 -16 28 -35 28 -40 0 -6 9 -15 20 -21 11 -6 19 -14 17 -18 -1 -4 1 -8
6 -9 4 -2 6 0 6 5 -2 9 -71 95 -84 104 -15 11 -13 31 5 45 8 7 10 13 5 13 -6
0 -16 -5 -23 -12 -9 -9 -17 -5 -34 18 -13 16 -22 32 -20 36 1 5 -4 7 -10 6 -7
-2 -12 2 -11 8 1 7 -7 20 -17 29 -11 10 -20 13 -20 8z"/>
<path d="M3439 1748 c-7 -12 -22 -28 -31 -37 -20 -17 -23 -31 -7 -31 5 0 7 5
4 10 -3 6 -2 10 3 10 10 0 56 60 50 65 -2 3 -11 -5 -19 -17z"/>
<path d="M3602 1758 c-7 -7 -12 -8 -12 -4 0 5 -7 3 -15 -4 -8 -7 -15 -18 -15
-24 0 -6 5 -3 11 7 6 9 14 15 18 12 5 -2 14 2 21 10 15 18 9 20 -8 3z"/>
<path d="M3655 1760 c3 -5 12 -10 19 -10 7 0 21 -9 31 -20 10 -11 14 -20 10
-20 -5 0 -4 -5 2 -11 5 -5 8 -28 6 -50 -3 -21 -1 -39 4 -39 10 0 11 76 1 86
-4 3 -4 12 -2 19 3 7 -10 22 -29 34 -37 23 -52 27 -42 11z"/>
<path d="M4017 1757 c-3 -8 -2 -20 3 -26 5 -9 8 -4 8 13 0 29 -3 32 -11 13z"/>
<path d="M4146 1753 c-22 -12 -28 -33 -10 -33 3 0 3 4 -1 9 -4 8 24 24 47 26
3 0 9 3 12 6 11 11 -22 6 -48 -8z"/>
<path d="M4261 1766 c-1 -5 11 -19 25 -32 14 -14 22 -29 18 -36 -4 -7 -3 -8 4
-4 15 9 -6 56 -24 56 -7 0 -15 6 -17 13 -3 6 -6 8 -6 3z"/>
<path d="M4409 1763 c-5 -26 -4 -271 1 -268 3 2 5 45 5 97 -1 71 2 99 15 118
24 36 34 59 14 33 -22 -30 -32 -29 -26 2 2 14 2 25 -2 25 -3 0 -7 -3 -7 -7z"/>
<path d="M4480 1760 c-11 -7 -5 -8 20 -4 43 8 51 14 19 14 -13 0 -31 -5 -39
-10z"/>
<path d="M4550 1765 c0 -10 24 -30 38 -33 8 -1 11 2 7 8 -8 12 -45 33 -45 25z"/>
<path d="M4830 1759 c0 -3 9 -9 19 -12 13 -3 18 0 15 7 -5 13 -34 18 -34 5z"/>
<path d="M5209 1753 c-13 -15 -12 -15 6 -6 11 6 27 13 35 16 10 4 8 6 -6 6
-12 1 -28 -6 -35 -16z"/>
<path d="M5290 1759 c0 -5 5 -7 10 -4 6 3 10 8 10 11 0 2 -4 4 -10 4 -5 0 -10
-5 -10 -11z"/>
<path d="M5570 1759 c0 -5 4 -8 9 -5 5 4 23 -6 40 -20 17 -14 31 -23 31 -19 0
10 -22 30 -47 43 -27 15 -33 15 -33 1z"/>
<path d="M5784 1738 c-27 -32 -27 -32 -22 -7 3 16 0 26 -8 26 -8 0 -9 -9 -3
-31 11 -38 11 -38 0 -32 -4 3 -6 -6 -3 -20 6 -33 17 -19 21 29 1 5 15 22 32
38 17 16 27 29 21 29 -6 0 -23 -15 -38 -32z"/>
<path d="M5864 1758 c56 -21 61 -34 61 -148 0 -112 1 -123 15 -115 5 3 6 15 0
29 -4 12 -4 29 0 36 5 8 5 19 1 25 -12 15 -7 103 7 117 7 7 12 17 12 23 0 5
-4 4 -8 -3 -7 -9 -15 -6 -36 15 -15 15 -40 28 -54 30 l-27 2 29 -11z"/>
<path d="M822 1740 c-7 -11 -19 -20 -26 -20 -9 0 -14 -9 -13 -20 1 -11 5 -20
10 -20 5 0 7 5 5 12 -3 7 7 22 21 34 14 12 24 25 21 28 -3 3 -11 -4 -18 -14z"/>
<path d="M1626 1745 c3 -8 9 -15 13 -15 9 0 35 -51 33 -62 -1 -5 3 -8 8 -8 6
0 10 4 10 9 0 6 -4 13 -10 16 -5 3 -10 14 -10 23 0 9 -12 25 -25 35 -20 14
-24 15 -19 2z"/>
<path d="M1770 1745 c-8 -9 -8 -15 -2 -15 12 0 26 19 19 26 -2 2 -10 -2 -17
-11z"/>
<path d="M2688 1754 c-8 -8 3 -44 13 -44 12 0 11 17 -1 25 -6 4 -8 11 -5 16 7
10 2 12 -7 3z"/>
<path d="M6070 1753 c0 -5 9 -18 20 -28 11 -10 20 -15 20 -11 0 4 -9 16 -20
28 -11 12 -20 17 -20 11z"/>
<path d="M3815 1700 c3 -69 13 -74 12 -5 -1 30 -4 55 -8 55 -3 0 -5 -23 -4
-50z"/>
<path d="M4919 1744 c6 -3 7 -12 4 -20 -5 -13 -9 -12 -27 3 -15 13 -17 13 -8
2 6 -9 10 -18 7 -20 -2 -3 5 -5 15 -6 11 -1 20 5 20 13 0 8 0 17 1 21 0 4 -4
8 -10 9 -7 2 -7 0 -2 -2z"/>
<path d="M5166 1726 c-13 -20 -13 -24 -2 -20 8 3 17 13 20 21 10 26 0 25 -18
-1z"/>
<path d="M5322 1738 c9 -7 26 -24 38 -38 l22 -25 -21 35 c-11 19 -28 37 -38
38 -17 4 -17 3 -1 -10z"/>
<path d="M1110 1724 c0 -8 5 -12 10 -9 6 4 8 11 5 16 -9 14 -15 11 -15 -7z"/>
<path d="M2542 1735 c4 -4 4 -13 -1 -19 -14 -19 -21 -46 -11 -46 6 0 10 8 10
18 0 10 5 23 11 29 8 8 7 13 -3 18 -7 5 -10 5 -6 0z"/>
<path d="M2036 1714 c-8 -22 -8 -24 8 -24 21 0 26 13 11 27 -10 10 -14 9 -19
-3z"/>
<path d="M1745 1710 c-3 -6 1 -7 9 -4 18 7 21 14 7 14 -6 0 -13 -4 -16 -10z"/>
<path d="M4106 1711 c-4 -5 -2 -12 3 -15 5 -4 12 -2 15 3 4 5 2 12 -3 15 -5 4
-12 2 -15 -3z"/>
<path d="M5443 1705 c-7 -8 -9 -16 -4 -19 5 -3 12 1 15 10 8 22 4 25 -11 9z"/>
<path d="M1935 1700 c3 -5 8 -10 11 -10 2 0 4 5 4 10 0 6 -5 10 -11 10 -5 0
-7 -4 -4 -10z"/>
<path d="M2859 1695 c-1 -15 -4 -28 -9 -42 -1 -5 -2 -11 -1 -15 0 -5 -3 -8 -9
-8 -5 0 -10 -5 -10 -11 0 -8 5 -8 15 1 8 7 12 16 9 21 -3 5 0 9 6 9 7 0 10 6
7 13 -2 6 0 20 5 30 5 11 5 17 -2 17 -5 0 -11 -7 -11 -15z"/>
<path d="M4013 1690 c5 -31 17 -37 15 -7 -1 15 -6 27 -10 27 -4 0 -7 -9 -5
-20z"/>
<path d="M5657 1704 c-3 -4 -1 -16 5 -28 6 -11 11 -22 10 -23 -1 -2 -2 -11 -2
-20 0 -15 2 -16 10 -3 5 8 6 17 2 20 -4 3 -9 16 -10 30 -5 29 -6 32 -15 24z"/>
<path d="M1112 1678 c0 -13 -1 -28 -3 -34 -2 -7 0 -12 5 -13 6 -1 10 15 11 34
0 19 -3 35 -7 35 -4 0 -7 -10 -6 -22z"/>
<path d="M1293 1685 c0 -8 4 -12 9 -9 5 3 6 10 3 15 -9 13 -12 11 -12 -6z"/>
<path d="M2706 1692 c-2 -4 -1 -14 3 -21 6 -9 11 -10 15 -2 4 6 2 11 -4 11 -6
0 -8 5 -5 10 3 6 4 10 1 10 -3 0 -7 -4 -10 -8z"/>
<path d="M4601 1687 c-6 -8 -8 -17 -4 -21 4 -3 6 -44 5 -91 0 -47 2 -85 6 -85
4 0 7 47 7 105 0 58 -1 105 -1 105 -1 0 -7 -6 -13 -13z"/>
<path d="M6105 1629 c4 -95 13 -99 11 -4 0 41 -4 75 -8 75 -3 0 -5 -32 -3 -71z"/>
<path d="M1445 1680 c3 -5 11 -10 16 -10 6 0 7 5 4 10 -3 6 -11 10 -16 10 -6
0 -7 -4 -4 -10z"/>
<path d="M1762 1670 c7 -10 14 -17 17 -15 2 3 11 0 20 -7 9 -6 4 0 -11 15 -32
32 -43 35 -26 7z"/>
<path d="M2949 1683 c-6 -30 -5 -94 0 -97 4 -3 6 14 6 37 -1 23 3 48 8 55 6 8
6 12 -2 12 -6 0 -12 -3 -12 -7z"/>
<path d="M4317 1683 c-10 -9 -9 -23 1 -23 5 0 9 7 9 15 0 17 -1 18 -10 8z"/>
<path d="M4689 1678 c-6 -66 -2 -100 13 -120 l17 -23 -6 23 c-3 12 -8 22 -12
22 -9 0 -7 83 3 98 4 7 2 12 -3 12 -6 0 -12 -6 -12 -12z"/>
<path d="M4913 1670 c-1 -11 3 -22 8 -26 6 -4 6 -10 -1 -19 -8 -9 -7 -14 3
-18 12 -4 16 21 7 43 -1 3 -2 13 -1 23 1 9 -2 17 -6 17 -5 0 -9 -9 -10 -20z"/>
<path d="M5141 1673 c-7 -68 0 -121 18 -132 7 -5 12 -11 12 -15 -3 -18 0 -26
8 -26 14 0 7 31 -10 44 -22 18 -30 77 -15 124 4 12 3 22 -2 22 -5 0 -10 -8
-11 -17z"/>
<path d="M777 1656 c-3 -8 2 -20 11 -28 15 -11 15 -11 5 3 -10 12 -10 18 -1
27 8 8 9 12 1 12 -6 0 -13 -6 -16 -14z"/>
<path d="M1305 1659 c-4 -6 -5 -12 -2 -15 2 -3 7 2 10 11 7 17 1 20 -8 4z"/>
<path d="M5429 1653 c-1 -10 0 -22 1 -28 2 -5 2 -20 2 -32 -1 -12 3 -25 8 -28
6 -4 8 -10 6 -14 -3 -4 8 -21 24 -36 17 -16 30 -25 30 -22 0 4 9 3 19 -3 11
-5 22 -6 25 -2 3 5 0 9 -7 9 -24 1 -42 8 -61 26 -19 17 -23 26 -31 75 -2 13
-6 26 -9 29 -3 3 -1 14 5 24 6 13 6 19 -1 19 -5 0 -11 -8 -11 -17z"/>
<path d="M1450 1645 c9 -11 9 -15 1 -15 -7 0 -9 -5 -5 -11 4 -8 9 -7 15 2 12
20 11 26 -7 33 -14 5 -15 4 -4 -9z"/>
<path d="M2510 1648 c0 -9 -6 -19 -12 -21 -10 -4 -10 -6 0 -6 14 -1 28 26 18
36 -3 4 -6 -1 -6 -9z"/>
<path d="M3184 1647 c-3 -8 -3 -26 0 -40 3 -15 -1 -31 -10 -38 -7 -6 -11 -15
-8 -20 3 -5 0 -9 -5 -9 -6 0 -11 -8 -11 -17 1 -16 2 -16 13 2 6 11 12 22 12
25 0 3 5 12 10 20 9 14 15 90 8 90 -2 0 -6 -6 -9 -13z"/>
<path d="M4211 1653 c-1 -18 13 -23 29 -11 12 8 12 9 -2 5 -9 -3 -19 -1 -22 6
-3 9 -5 9 -5 0z"/>
<path d="M976 1634 c-3 -8 -2 -23 4 -33 6 -12 5 -22 -1 -28 -6 -6 -4 -15 8
-24 16 -13 17 -12 5 3 -9 11 -10 18 -2 23 6 4 7 12 1 22 -4 9 -6 24 -4 34 6
23 -2 25 -11 3z"/>
<path d="M1675 1640 c3 -5 8 -10 11 -10 2 0 4 5 4 10 0 6 -5 10 -11 10 -5 0
-7 -4 -4 -10z"/>
<path d="M1820 1639 c0 -5 5 -7 10 -4 6 3 10 8 10 11 0 2 -4 4 -10 4 -5 0 -10
-5 -10 -11z"/>
<path d="M2724 1638 c1 -7 6 -20 11 -28 5 -8 11 -24 12 -34 2 -11 8 -25 14
-33 6 -7 8 -13 4 -13 -4 0 -2 -6 4 -13 6 -8 8 -16 5 -20 -3 -3 2 -4 13 -3 11
2 17 10 15 21 -2 12 1 15 10 9 7 -4 10 -4 6 1 -4 4 -2 17 4 29 18 33 19 50 2
35 -7 -6 -12 -14 -9 -18 2 -4 -5 -20 -16 -37 -10 -16 -19 -26 -20 -21 -1 4 -2
10 -3 15 -1 4 -5 13 -9 20 -5 6 -5 17 -2 22 3 6 1 10 -5 10 -6 0 -9 4 -6 9 3
5 -1 14 -9 21 -7 6 -11 18 -8 26 3 8 1 14 -5 14 -6 0 -9 -6 -8 -12z"/>
<path d="M4013 1613 c0 -52 -4 -64 -31 -90 -26 -26 -18 -31 10 -6 17 16 24 9
19 -19 0 -5 3 -8 8 -8 6 0 9 9 8 20 -1 11 -5 20 -10 20 -4 0 -5 6 0 13 9 14
12 107 3 107 -4 0 -7 -17 -7 -37z"/>
<path d="M4149 1639 c-6 -4 1 -6 15 -6 15 0 28 2 30 6 3 4 -4 7 -15 7 -11 0
-25 -3 -30 -7z"/>
<path d="M4260 1639 c0 -5 5 -7 10 -4 6 3 10 8 10 11 0 2 -4 4 -10 4 -5 0 -10
-5 -10 -11z"/>
<path d="M4294 1643 c10 -11 37 -12 30 -2 -3 5 -12 9 -21 9 -9 0 -13 -3 -9 -7z"/>
<path d="M1850 1628 c0 -4 4 -8 9 -8 6 0 12 4 15 8 3 5 -1 9 -9 9 -8 0 -15 -4
-15 -9z"/>
<path d="M2218 1598 c-24 -56 -17 -58 10 -3 12 25 18 45 14 45 -4 0 -15 -19
-24 -42z"/>
<path d="M5748 1633 c7 -3 16 -2 19 1 4 3 -2 6 -13 5 -11 0 -14 -3 -6 -6z"/>
<path d="M1299 1612 c5 -10 6 -24 2 -30 -10 -16 -1 -72 11 -72 5 0 7 -4 4 -9
-7 -11 21 -8 31 4 4 4 3 5 -3 2 -18 -10 -34 16 -33 54 2 54 0 69 -11 69 -7 0
-7 -6 -1 -18z"/>
<path d="M1890 1619 c0 -5 5 -7 10 -4 6 3 10 8 10 11 0 2 -4 4 -10 4 -5 0 -10
-5 -10 -11z"/>
<path d="M3813 1610 c1 -11 5 -20 9 -20 3 0 6 9 5 20 -1 11 -5 20 -9 20 -3 0
-6 -9 -5 -20z"/>
<path d="M4122 1625 c5 -5 -1 -14 -12 -22 -19 -14 -22 -45 -5 -60 4 -5 5 2 2
15 -3 15 1 29 15 41 15 15 17 21 6 27 -7 4 -10 4 -6 -1z"/>
<path d="M776 1597 c1 -12 3 -23 4 -24 7 -9 4 -29 -5 -36 -6 -5 -5 -7 4 -5 17
5 23 35 9 44 -7 4 -6 9 1 14 9 5 8 10 -2 18 -11 9 -13 7 -11 -11z"/>
<path d="M1675 1610 c3 -5 8 -10 11 -10 2 0 4 5 4 10 0 6 -5 10 -11 10 -5 0
-7 -4 -4 -10z"/>
<path d="M4305 1611 c-6 -11 13 -26 22 -17 4 3 0 6 -8 6 -11 0 -11 2 1 10 9 6
10 10 3 10 -6 0 -14 -4 -18 -9z"/>
<path d="M5746 1605 c4 -8 11 -15 16 -15 6 0 5 6 -2 15 -7 8 -14 15 -16 15 -2
0 -1 -7 2 -15z"/>
<path d="M1110 1600 c0 -5 5 -10 11 -10 5 0 7 5 4 10 -3 6 -8 10 -11 10 -2 0
-4 -4 -4 -10z"/>
<path d="M1923 1598 c26 -19 28 -53 6 -77 -11 -12 -25 -21 -32 -22 -75 -7 -91
-4 -118 18 -16 14 -26 30 -22 38 3 8 1 15 -5 15 -25 0 9 -60 43 -77 17 -8 53
-9 122 -1 7 1 15 10 19 20 3 10 9 16 13 14 4 -3 7 5 6 17 -2 39 -16 67 -33 67
-14 0 -14 -1 1 -12z"/>
<path d="M5662 1592 c8 -29 -55 -102 -82 -97 -11 2 -20 0 -20 -6 0 -12 34 -6
52 9 8 6 19 8 23 4 5 -4 5 -1 1 6 -4 6 -3 12 2 12 9 0 33 43 38 67 1 7 -3 16
-8 20 -7 4 -9 -1 -6 -15z"/>
<path d="M1446 1592 c-3 -5 1 -9 9 -9 8 0 12 4 9 9 -3 4 -7 8 -9 8 -2 0 -6 -4
-9 -8z"/>
<path d="M3724 1554 c-1 -24 2 -44 5 -44 8 0 9 76 1 83 -3 3 -6 -14 -6 -39z"/>
<path d="M4909 1590 c-1 -8 -1 -18 -1 -21 1 -9 -55 -61 -64 -59 -5 1 -10 -4
-12 -12 -3 -11 -2 -11 6 0 5 8 13 14 18 14 13 0 26 10 53 41 19 21 22 30 13
39 -9 9 -12 9 -13 -2z"/>
<path d="M1673 1576 c3 -8 2 -17 -4 -20 -5 -2 -4 -3 2 -2 15 3 21 36 7 36 -6
0 -8 -6 -5 -14z"/>
<path d="M2480 1576 c0 -8 -11 -38 -25 -68 -14 -29 -25 -60 -25 -68 0 -13 20
28 60 128 6 14 6 22 0 22 -6 0 -10 -6 -10 -14z"/>
<path d="M1113 1568 c4 -10 2 -18 -3 -18 -6 0 -10 -5 -10 -12 0 -8 6 -6 17 5
14 14 15 19 4 29 -11 11 -13 10 -8 -4z"/>
<path d="M3818 1574 c-10 -16 34 -79 57 -82 l20 -2 -20 11 c-23 14 -37 35 -45
64 -4 11 -9 15 -12 9z"/>
<path d="M4297 1555 c-28 -38 -63 -57 -110 -59 -42 -3 -80 11 -71 26 3 4 0 8
-5 8 -18 0 -12 -17 12 -32 32 -21 101 -15 142 13 19 13 35 27 35 31 0 4 6 6
13 4 6 -1 8 -1 4 2 -4 2 -3 10 4 18 6 8 8 14 3 14 -5 0 -17 -12 -27 -25z"/>
<path d="M5355 1571 c-3 -6 -3 -11 2 -11 4 0 1 -5 -7 -10 -12 -8 -13 -11 -2
-22 8 -7 12 -8 11 -3 -1 6 1 18 6 28 8 20 1 34 -10 18z"/>
<path d="M5745 1548 c1 -18 7 -33 14 -34 6 -1 7 0 1 3 -6 3 -7 11 0 23 7 13 6
21 -3 29 -11 8 -13 4 -12 -21z"/>
<path d="M1440 1559 c0 -5 4 -8 9 -4 5 3 12 1 16 -5 3 -5 1 -10 -4 -10 -7 0
-10 -22 -10 -54 1 -29 -2 -60 -6 -67 -6 -11 -5 -12 6 -1 8 8 13 30 11 62 -2
49 10 72 25 47 15 -25 58 -45 91 -41 45 4 62 11 62 26 0 10 -2 10 -8 1 -4 -7
-28 -15 -52 -17 -40 -4 -47 -1 -83 35 -40 39 -57 48 -57 28z"/>
<path d="M2950 1561 c0 -6 9 -16 20 -24 11 -8 18 -16 15 -19 -13 -13 44 -34
85 -33 59 3 57 2 64 22 6 15 5 15 -11 2 -28 -24 -143 -13 -127 12 3 5 -2 12
-10 15 -9 3 -16 12 -16 20 0 8 -4 14 -10 14 -5 0 -10 -4 -10 -9z"/>
<path d="M4919 1543 c-13 -16 -12 -17 4 -4 9 7 17 15 17 17 0 8 -8 3 -21 -13z"/>
<path d="M973 1525 c0 -8 4 -12 9 -9 5 3 6 10 3 15 -9 13 -12 11 -12 -6z"/>
<path d="M1650 1525 c0 -8 2 -15 4 -15 2 0 6 7 10 15 3 8 1 15 -4 15 -6 0 -10
-7 -10 -15z"/>
<path d="M2189 1530 c-3 -19 -5 -25 -17 -46 -6 -12 -8 -24 -5 -28 3 -3 1 -6
-5 -6 -7 0 -12 -5 -12 -11 0 -8 5 -7 15 1 9 7 13 15 10 18 -3 3 2 16 10 29 9
13 13 23 9 23 -4 0 -1 7 6 15 9 10 9 15 1 15 -6 0 -12 -4 -12 -10z"/>
<path d="M4725 1529 c-5 -8 -5 -11 0 -7 4 4 13 2 19 -6 14 -17 63 -29 70 -18
3 5 -8 9 -25 10 -17 0 -37 8 -43 18 -11 14 -14 15 -21 3z"/>
<path d="M6109 1538 c-4 -10 -7 -59 -3 -55 7 7 15 57 9 57 -3 0 -6 -1 -6 -2z"/>
<path d="M1116 1523 c-6 -7 14 -27 35 -35 9 -3 22 -2 30 4 11 8 10 9 -4 4 -10
-3 -25 2 -36 13 -11 11 -22 17 -25 14z"/>
<path d="M2044 1521 c4 -5 0 -12 -6 -14 -10 -4 -10 -6 0 -6 8 -1 10 -6 6 -13
-5 -9 -2 -8 9 1 13 10 15 17 6 27 -13 16 -23 19 -15 5z"/>
<path d="M3257 1523 c-11 -10 -8 -35 3 -28 6 4 8 10 5 15 -3 4 1 11 7 13 7 3
8 6 2 6 -6 1 -14 -2 -17 -6z"/>
<path d="M4313 1510 c1 -21 10 -18 13 5 1 8 -2 15 -6 15 -5 0 -8 -9 -7 -20z"/>
<path d="M4925 1521 c-3 -5 -2 -12 3 -15 5 -3 9 1 9 9 0 17 -3 19 -12 6z"/>
<path d="M779 1503 c-13 -16 -12 -17 4 -4 9 7 17 15 17 17 0 8 -8 3 -21 -13z"/>
<path d="M5020 1511 c0 -5 5 -13 12 -17 7 -4 8 -3 4 4 -4 7 -3 12 3 12 5 0 12
-5 14 -10 3 -6 4 -5 3 2 -3 16 -36 24 -36 9z"/>
<path d="M5306 1505 c-11 -8 -28 -13 -38 -9 -10 3 -18 1 -18 -4 0 -14 59 -10
65 5 2 8 10 11 16 7 8 -4 9 -3 5 4 -9 14 -7 15 -30 -3z"/>
<path d="M980 1500 c-9 -6 -10 -10 -3 -10 6 0 15 5 18 10 8 12 4 12 -15 0z"/>
<path d="M1359 1493 c-13 -16 -12 -17 4 -4 9 7 17 15 17 17 0 8 -8 3 -21 -13z"/>
<path d="M3905 1490 c-2 -3 7 -6 21 -6 13 0 24 3 24 7 0 9 -40 8 -45 -1z"/>
<path d="M4914 1479 c0 -10 4 -19 8 -19 4 0 8 6 8 14 0 8 -4 17 -8 20 -4 2 -8
-4 -8 -15z"/>
<path d="M5220 1489 c0 -5 5 -7 10 -4 6 3 10 8 10 11 0 2 -4 4 -10 4 -5 0 -10
-5 -10 -11z"/>
<path d="M4700 1458 c-1 -38 51 -91 66 -66 4 7 3 8 -4 4 -7 -4 -12 -2 -12 3 0
6 -5 10 -12 9 -7 -2 -12 2 -13 7 -1 12 -24 53 -25 43z"/>
<path d="M4905 1440 c-3 -5 -1 -10 4 -10 6 0 11 5 11 10 0 6 -2 10 -4 10 -3 0
-8 -4 -11 -10z"/>
<path d="M4876 1405 c-11 -9 -14 -15 -7 -15 7 0 19 7 27 15 20 19 5 19 -20 0z"/>
<path d="M1455 1401 c-3 -5 -2 -12 3 -15 5 -3 9 1 9 9 0 17 -3 19 -12 6z"/>
<path d="M4775 1380 c-2 -3 16 -6 40 -6 24 1 41 3 38 6 -7 7 -74 7 -78 0z"/>
</g>
</svg>
